<svg width="26" height="25" viewBox="0 0 26 25" fill="none" xmlns="http://www.w3.org/2000/svg">
<path d="M13.4389 6.09032C9.891 6.09032 7.02924 8.95208 7.02924 12.5C7.02924 16.0479 9.891 18.9097 13.4389 18.9097C16.9868 18.9097 19.8486 16.0479 19.8486 12.5C19.8486 8.95208 16.9868 6.09032 13.4389 6.09032ZM13.4389 16.6671C11.1462 16.6671 9.27179 14.7983 9.27179 12.5C9.27179 10.2017 11.1406 8.33287 13.4389 8.33287C15.7372 8.33287 17.606 10.2017 17.606 12.5C17.606 14.7983 15.7317 16.6671 13.4389 16.6671ZM21.6058 5.82813C21.6058 6.65932 20.9364 7.32316 20.1108 7.32316C19.2796 7.32316 18.6157 6.65374 18.6157 5.82813C18.6157 5.00251 19.2852 4.33309 20.1108 4.33309C20.9364 4.33309 21.6058 5.00251 21.6058 5.82813ZM25.851 7.34548C25.7562 5.3428 25.2988 3.56884 23.8316 2.10727C22.3701 0.64571 20.5961 0.188274 18.5934 0.0878612C16.5294 -0.0292871 10.3429 -0.0292871 8.27882 0.0878612C6.28172 0.182696 4.50776 0.640132 3.04062 2.1017C1.57348 3.56326 1.12162 5.33722 1.02121 7.3399C0.904063 9.40394 0.904063 15.5905 1.02121 17.6545C1.11604 19.6572 1.57348 21.4312 3.04062 22.8927C4.50776 24.3543 6.27614 24.8117 8.27882 24.9121C10.3429 25.0293 16.5294 25.0293 18.5934 24.9121C20.5961 24.8173 22.3701 24.3599 23.8316 22.8927C25.2932 21.4312 25.7506 19.6572 25.851 17.6545C25.9682 15.5905 25.9682 9.40952 25.851 7.34548ZM23.1845 19.8692C22.7494 20.9626 21.907 21.8049 20.8081 22.2456C19.1624 22.8983 15.2575 22.7477 13.4389 22.7477C11.6203 22.7477 7.70981 22.8927 6.06974 22.2456C4.97635 21.8105 4.134 20.9681 3.6933 19.8692C3.04062 18.2235 3.19124 14.3186 3.19124 12.5C3.19124 10.6814 3.0462 6.77089 3.6933 5.13082C4.12843 4.03743 4.97078 3.19508 6.06974 2.75438C7.71539 2.1017 11.6203 2.25231 13.4389 2.25231C15.2575 2.25231 19.168 2.10727 20.8081 2.75438C21.9015 3.1895 22.7438 4.03185 23.1845 5.13082C23.8372 6.77647 23.6866 10.6814 23.6866 12.5C23.6866 14.3186 23.8372 18.2291 23.1845 19.8692Z" fill="white"/>
</svg>
