<svg width="145" height="26" viewBox="0 0 145 26" fill="none" xmlns="http://www.w3.org/2000/svg">
<path d="M18.46 12.365H23.64V22.305C22.31 23.3083 20.77 24.0783 19.02 24.615C17.27 25.1517 15.5083 25.42 13.735 25.42C11.1917 25.42 8.905 24.8833 6.875 23.81C4.845 22.7133 3.24667 21.2083 2.08 19.295C0.936667 17.3583 0.365 15.1767 0.365 12.75C0.365 10.3233 0.936667 8.15333 2.08 6.24C3.24667 4.30333 4.85667 2.79833 6.91 1.725C8.96333 0.628333 11.2733 0.0799996 13.84 0.0799996C15.9867 0.0799996 17.935 0.441666 19.685 1.165C21.435 1.88833 22.905 2.93833 24.095 4.315L20.455 7.675C18.705 5.83167 16.5933 4.91 14.12 4.91C12.5567 4.91 11.1683 5.23667 9.955 5.89C8.74167 6.54333 7.79667 7.465 7.12 8.655C6.44333 9.845 6.105 11.21 6.105 12.75C6.105 14.2667 6.44333 15.62 7.12 16.81C7.79667 18 8.73 18.9333 9.92 19.61C11.1333 20.2633 12.51 20.59 14.05 20.59C15.6833 20.59 17.1533 20.24 18.46 19.54V12.365ZM45.042 19.75H33.667L31.497 25H25.687L36.607 0.499998H42.207L53.162 25H47.212L45.042 19.75ZM43.257 15.445L39.372 6.065L35.487 15.445H43.257ZM77.9988 25L77.9638 10.3L70.7538 22.41H68.1988L61.0238 10.615V25H55.7038V0.499998H60.3938L69.5638 15.725L78.5938 0.499998H83.2488L83.3188 25H77.9988ZM89.1316 0.499998H94.8016V25H89.1316V0.499998ZM106.286 5.05V11.525H117.626V16.075H106.286V25H100.616V0.499998H119.131V5.05H106.286ZM134.729 16.32V25H129.059V16.25L119.574 0.499998H125.594L132.139 11.385L138.684 0.499998H144.249L134.729 16.32Z" fill="#333333"/>
</svg>
