<svg width="38" height="35" viewBox="0 0 38 35" fill="none" xmlns="http://www.w3.org/2000/svg">
<path d="M18.5837 31.2628C18.5837 29.3273 16.9616 27.7583 14.961 27.7583C12.9599 27.7583 11.3379 29.3273 11.3379 31.2624C11.3379 33.198 12.9599 34.7669 14.961 34.7669C16.9605 34.7648 18.5815 33.1973 18.5837 31.2628ZM12.6229 31.2628C12.6229 30.0136 13.6695 29.0013 14.961 29.0013C16.2521 29.0013 17.2987 30.0136 17.2987 31.2624C17.2987 32.5116 16.2521 33.524 14.961 33.524C13.6702 33.5226 12.6243 32.5109 12.6229 31.2628Z" fill="#111111"/>
<path d="M28.3795 34.7669C30.3806 34.7673 32.0026 33.1983 32.0026 31.2628C32.003 29.3273 30.3809 27.7583 28.3799 27.7583C26.3789 27.7583 24.7568 29.3273 24.7568 31.2628C24.7593 33.1969 26.3796 34.7645 28.3795 34.7669ZM28.3795 29.0013C29.6707 29.0013 30.7176 30.0136 30.7176 31.2624C30.718 32.5113 29.671 33.524 28.3799 33.524C27.0888 33.524 26.0419 32.5116 26.0419 31.2628C26.0433 30.0146 27.0892 29.003 28.3795 29.0013Z" fill="#111111"/>
<path d="M0.642508 1.24298H4.56174C5.85141 1.23812 6.95107 2.14641 7.14755 3.37965L10.25 22.3357C10.5429 24.1737 12.1822 25.528 14.1051 25.5207H33.2821C33.6367 25.5207 33.9246 25.2422 33.9246 24.8993C33.9246 24.5559 33.6367 24.2778 33.2821 24.2778H14.1051C12.8154 24.2826 11.7157 23.374 11.5193 22.1411L10.9918 18.9183H30.6324C32.2954 18.9176 33.7754 17.8986 34.3204 16.3793L37.9643 6.2068C38.0328 6.01675 38.0016 5.80659 37.8811 5.64255C37.7603 5.47886 37.5652 5.38141 37.3573 5.38141H8.77605L8.41679 3.18509C8.12386 1.34702 6.4846 -0.00725367 4.56174 2.92337e-05H0.642508C0.287551 2.92337e-05 0 0.278514 0 0.621504C0 0.964841 0.287551 1.24298 0.642508 1.24298ZM36.4545 6.6247L33.1064 15.9721C32.7407 16.9914 31.7479 17.675 30.6324 17.6753H10.7882L8.97934 6.62436L36.4545 6.6247Z" fill="#111111"/>
</svg>
