<svg width="84" height="16" viewBox="0 0 84 16" fill="none" xmlns="http://www.w3.org/2000/svg">
<path d="M11.2723 7.78H14.2323V13.46C13.4723 14.0333 12.5923 14.4733 11.5923 14.78C10.5923 15.0867 9.58568 15.24 8.57234 15.24C7.11901 15.24 5.81234 14.9333 4.65234 14.32C3.49234 13.6933 2.57901 12.8333 1.91234 11.74C1.25901 10.6333 0.932344 9.38667 0.932344 8C0.932344 6.61333 1.25901 5.37333 1.91234 4.28C2.57901 3.17333 3.49901 2.31333 4.67234 1.7C5.84568 1.07333 7.16568 0.76 8.63234 0.76C9.85901 0.76 10.9723 0.966666 11.9723 1.38C12.9723 1.79333 13.8123 2.39333 14.4923 3.18L12.4123 5.1C11.4123 4.04667 10.2057 3.52 8.79234 3.52C7.89901 3.52 7.10568 3.70667 6.41234 4.08C5.71901 4.45333 5.17901 4.98 4.79234 5.66C4.40568 6.34 4.21234 7.12 4.21234 8C4.21234 8.86667 4.40568 9.64 4.79234 10.32C5.17901 11 5.71234 11.5333 6.39234 11.92C7.08568 12.2933 7.87234 12.48 8.75234 12.48C9.68568 12.48 10.5257 12.28 11.2723 11.88V7.78ZM26.462 12H19.962L18.722 15H15.402L21.642 0.999999H24.842L31.102 15H27.702L26.462 12ZM25.442 9.54L23.222 4.18L21.002 9.54H25.442ZM45.2945 15L45.2745 6.6L41.1545 13.52H39.6945L35.5945 6.78V15H32.5545V0.999999H35.2345L40.4745 9.7L45.6345 0.999999H48.2945L48.3345 15H45.2945ZM51.6561 0.999999H54.8961V15H51.6561V0.999999ZM61.4586 3.6V7.3H67.9386V9.9H61.4586V15H58.2186V0.999999H68.7986V3.6H61.4586ZM77.712 10.04V15H74.472V10L69.052 0.999999H72.492L76.232 7.22L79.972 0.999999H83.152L77.712 10.04Z" fill="#333333"/>
</svg>
