<svg width="83" height="16" viewBox="0 0 83 16" fill="none" xmlns="http://www.w3.org/2000/svg">
<path d="M11.12 7.78H14.08V13.46C13.32 14.0333 12.44 14.4733 11.44 14.78C10.44 15.0867 9.43333 15.24 8.42 15.24C6.96667 15.24 5.66 14.9333 4.5 14.32C3.34 13.6933 2.42667 12.8333 1.76 11.74C1.10667 10.6333 0.78 9.38667 0.78 8C0.78 6.61333 1.10667 5.37333 1.76 4.28C2.42667 3.17333 3.34667 2.31333 4.52 1.7C5.69333 1.07333 7.01333 0.76 8.48 0.76C9.70667 0.76 10.82 0.966666 11.82 1.38C12.82 1.79333 13.66 2.39333 14.34 3.18L12.26 5.1C11.26 4.04667 10.0533 3.52 8.64 3.52C7.74667 3.52 6.95333 3.70667 6.26 4.08C5.56667 4.45333 5.02667 4.98 4.64 5.66C4.25333 6.34 4.06 7.12 4.06 8C4.06 8.86667 4.25333 9.64 4.64 10.32C5.02667 11 5.56 11.5333 6.24 11.92C6.93333 12.2933 7.72 12.48 8.6 12.48C9.53333 12.48 10.3733 12.28 11.12 11.88V7.78ZM26.3097 12H19.8097L18.5697 15H15.2497L21.4897 0.999999H24.6897L30.9497 15H27.5497L26.3097 12ZM25.2897 9.54L23.0697 4.18L20.8497 9.54H25.2897ZM45.1422 15L45.1222 6.6L41.0022 13.52H39.5422L35.4422 6.78V15H32.4022V0.999999H35.0822L40.3222 9.7L45.4822 0.999999H48.1422L48.1822 15H45.1422ZM51.5038 0.999999H54.7438V15H51.5038V0.999999ZM61.3063 3.6V7.3H67.7863V9.9H61.3063V15H58.0663V0.999999H68.6463V3.6H61.3063ZM77.5597 10.04V15H74.3197V10L68.8997 0.999999H72.3397L76.0797 7.22L79.8197 0.999999H82.9997L77.5597 10.04Z" fill="white"/>
</svg>
