<svg width="20" height="25" viewBox="0 0 20 25" fill="none" xmlns="http://www.w3.org/2000/svg">
<path d="M17.8322 17.8704L13.6787 15.8804C13.287 15.6925 13.0435 15.315 13.0435 14.895V13.4863C13.143 13.3696 13.2478 13.2367 13.3561 13.09C13.8948 12.3608 14.3265 11.5492 14.6404 10.6737C15.2539 10.4042 15.6522 9.82292 15.6522 9.16667V7.5C15.6522 7.09875 15.4957 6.71 15.2174 6.40625V4.19C15.2417 3.96083 15.3374 2.59667 14.3078 1.47125C13.4148 0.495 11.9657 0 10 0C8.03435 0 6.58522 0.495 5.69217 1.47083C4.66261 2.59625 4.75826 3.96083 4.78261 4.19V6.40625C4.50435 6.71 4.34783 7.09875 4.34783 7.5V9.16667C4.34783 9.67375 4.58826 10.1467 4.9987 10.4621C5.39696 11.9733 6.23043 13.1121 6.52174 13.4775V14.8562C6.52174 15.2596 6.29217 15.6296 5.92304 15.8229L2.04435 17.8504C0.783043 18.51 0 19.7742 0 21.1508V22.5C0 24.4775 6.5413 25 10 25C13.4587 25 20 24.4775 20 22.5V21.2321C20 19.7996 19.1691 18.5112 17.8322 17.8704ZM19.1304 22.5C19.1304 23.0654 15.9078 24.1667 10 24.1667C4.09217 24.1667 0.869565 23.0654 0.869565 22.5V21.1508C0.869565 20.0796 1.47913 19.095 2.46044 18.5825L6.33913 16.555C6.98826 16.2154 7.3913 15.5642 7.3913 14.8562V13.1817L7.29 13.0658C7.27957 13.0537 6.21391 11.8183 5.80739 10.1221L5.76783 9.95708L5.61957 9.86542C5.36783 9.70958 5.21739 9.44833 5.21739 9.16667V7.5C5.21739 7.26625 5.32087 7.04833 5.5087 6.88542L5.65217 6.76167V4.16667L5.64826 4.11208C5.64696 4.10083 5.49913 2.94583 6.34609 2.02C7.06652 1.2325 8.29609 0.833333 10 0.833333C11.6978 0.833333 12.9248 1.22958 13.6461 2.01167C14.4926 2.92875 14.3526 4.10208 14.3517 4.11208L14.3478 6.76167L14.4913 6.88583C14.6791 7.04833 14.7826 7.26625 14.7826 7.5V9.16667C14.7826 9.53042 14.5339 9.84875 14.1643 9.95792L13.9478 10.0217L13.8783 10.2279C13.5874 11.095 13.173 11.8958 12.6461 12.6083C12.517 12.7837 12.3913 12.9392 12.2822 13.0579L12.1739 13.1762V14.895C12.1739 15.6325 12.6013 16.2954 13.2896 16.6254L17.443 18.6154C18.4839 19.1142 19.1304 20.1167 19.1304 21.2321V22.5Z" fill="#111111"/>
</svg>
