<svg width="29" height="27" viewBox="0 0 29 27" fill="none" xmlns="http://www.w3.org/2000/svg">
<path d="M14.182 23.8586C14.182 22.3814 12.9441 21.1841 11.4173 21.1841C9.89022 21.1841 8.65234 22.3814 8.65234 23.8583C8.65234 25.3354 9.89022 26.5328 11.4173 26.5328C12.9433 26.5312 14.1804 25.3349 14.182 23.8586ZM9.63301 23.8586C9.63301 22.9052 10.4317 22.1327 11.4173 22.1327C12.4026 22.1327 13.2013 22.9052 13.2013 23.8583C13.2013 24.8116 12.4026 25.5842 11.4173 25.5842C10.4323 25.5831 9.63411 24.8111 9.63301 23.8586Z" fill="#111111"/>
<path d="M21.6573 26.5328C23.1844 26.533 24.4222 25.3357 24.4222 23.8586C24.4225 22.3814 23.1846 21.1841 21.6576 21.1841C20.1305 21.1841 18.8926 22.3814 18.8926 23.8586C18.8945 25.3346 20.131 26.5309 21.6573 26.5328ZM21.6573 22.1327C22.6426 22.1327 23.4416 22.9052 23.4416 23.8583C23.4419 24.8114 22.6429 25.5842 21.6576 25.5842C20.6722 25.5842 19.8732 24.8116 19.8732 23.8586C19.8743 22.906 20.6725 22.134 21.6573 22.1327Z" fill="#111111"/>
<path d="M0.490335 0.948589H3.48133C4.46555 0.944884 5.30476 1.63805 5.45471 2.5792L7.82238 17.0456C8.04593 18.4484 9.29694 19.4819 10.7644 19.4763H25.3995C25.6701 19.4763 25.8898 19.2638 25.8898 19.0021C25.8898 18.74 25.6701 18.5278 25.3995 18.5278H10.7644C9.78016 18.5315 8.94096 17.8381 8.79101 16.8972L8.38851 14.4376H23.3774C24.6465 14.4371 25.776 13.6595 26.1919 12.5L28.9727 4.73677C29.025 4.59173 29.0012 4.43134 28.9093 4.30616C28.817 4.18123 28.6682 4.10686 28.5095 4.10686H6.69751L6.42334 2.43073C6.19979 1.02799 4.94877 -0.0055357 3.48133 2.231e-05H0.490335C0.219447 2.231e-05 0 0.21255 0 0.474306C0 0.736326 0.219447 0.948589 0.490335 0.948589ZM27.8205 5.05569L25.2654 12.1893C24.9863 12.9671 24.2286 13.4888 23.3774 13.489H8.23309L6.85265 5.05543L27.8205 5.05569Z" fill="#111111"/>
</svg>
