<svg width="889" height="407" viewBox="0 0 889 407" fill="none" xmlns="http://www.w3.org/2000/svg">
<g opacity="0.5">
<path opacity="0.5" d="M847.216 405.567L788.698 405.531L773.647 405.521L749.259 405.508L734.211 405.498L308.143 405.251L276.794 405.234L154.254 405.162L129.133 405.145L49.7592 405.099C49.7592 405.099 12.8438 321.342 66.2323 221.042C77.8374 199.246 82.8946 179.245 84.5643 160.456C85.2976 152.226 85.3837 144.23 85.0773 136.415C83.8001 103.134 93.6529 76.2404 113.679 55.5539C116.14 53.0105 118.757 50.5626 121.525 48.207C134.41 37.2362 150.584 28.2948 169.876 21.34C243.855 -5.32282 285.071 56.2655 484.3 32.0868C646.896 12.3525 644.031 -11.1838 762.227 6.11586C800.641 11.7364 826.199 27.4514 837.976 48.207C839.339 50.5923 840.506 53.0434 841.498 55.5539C843.281 60.0806 844.469 64.805 845.054 69.671C846.238 79.4756 846.634 89.5306 846.459 99.6712C845.908 132.399 839.432 166.126 834.137 196.07C833.277 200.929 832.447 205.687 831.686 210.325C829.903 221.108 828.457 231.246 827.724 240.474C827.318 245.564 827.128 250.377 827.228 254.878C827.383 262.488 828.34 269.192 830.423 274.77C850.449 328.504 859.961 375.145 847.216 405.567Z" fill="#D2E0FF"/>
</g>
<path d="M560.641 287.86H538.646V284.279H560.641C568.918 284.279 575.651 277.835 575.651 269.918V237.622H579.394V269.918C579.394 279.808 570.98 287.86 560.641 287.86Z" fill="#E35454"/>
<path d="M572.597 297.931H535.406V294.35H572.597C580.298 294.35 586.56 288.354 586.56 280.987V233.826H590.303V280.987C590.303 290.33 582.36 297.931 572.597 297.931Z" fill="#8C9DF4"/>
<path d="M542.342 84.6719H531.436V405.565H542.342V84.6719Z" fill="#8C9DF4"/>
<path d="M846.462 99.6711H361.109C331.905 99.6711 308.144 122.413 308.144 150.358V405.567H276.795V150.358C276.795 105.868 314.619 69.6709 361.109 69.6709H845.058C846.242 79.4755 846.641 89.5305 846.462 99.6711Z" fill="#8C9DF4"/>
<path d="M827.233 254.881H814.943C800.47 254.881 788.7 266.145 788.7 279.998V405.564H773.648V279.998C773.648 258.205 792.177 240.474 814.946 240.474H827.732C827.323 245.567 827.137 250.38 827.233 254.881Z" fill="#8C9DF4"/>
<path d="M834.146 196.071C833.285 200.93 832.456 205.687 831.695 210.326H775.511C762.811 210.326 749.261 212.978 749.261 244.619V405.565H734.213V244.619C734.213 211.95 747.722 196.067 775.507 196.067H834.146V196.071Z" fill="#8C9DF4"/>
<path d="M154.254 201.067V405.566H129.133V201.067C129.133 178.674 110.096 160.455 86.6925 160.455H84.5684C85.3016 152.225 85.3877 144.229 85.0813 136.415H86.6925C123.945 136.415 154.254 165.417 154.254 201.067Z" fill="#D50000"/>
<path d="M494.348 199.523H401.672V404.207H494.348V199.523Z" fill="#D2E0FF"/>
<path d="M351.129 403.98H331.213V308.988C331.213 284.727 351.841 264.986 377.193 264.986H433.022V284.045H377.193C362.82 284.045 351.129 295.233 351.129 308.988V403.98Z" fill="#D2E0FF"/>
<path d="M159.724 313.412C159.517 313.059 159.297 312.72 159.073 312.381C158.092 310.921 156.949 309.6 155.675 308.437C152.653 305.65 148.876 303.723 144.669 302.85C143.055 302.517 141.426 302.355 139.812 302.355C139.185 302.355 138.558 302.382 137.939 302.428C134.238 302.718 130.647 303.881 127.439 305.864C126.206 306.625 125.07 307.485 124.027 308.434C120.739 311.432 118.46 315.3 117.486 319.645C116.202 325.361 117.317 331.216 120.633 336.128C121.614 337.581 122.757 338.902 124.031 340.071C127.053 342.858 130.83 344.792 135.037 345.659C136.658 345.991 138.286 346.159 139.901 346.159C144.253 346.159 148.525 344.96 152.27 342.648C153.503 341.887 154.639 341.027 155.682 340.078C158.97 337.08 161.249 333.205 162.223 328.86C163.411 323.543 162.526 318.103 159.724 313.412ZM157.999 327.997C157.555 329.993 156.76 331.871 155.675 333.565C154.939 334.708 154.074 335.772 153.08 336.727C152.136 337.643 151.076 338.463 149.923 339.182C149.85 339.225 149.781 339.267 149.709 339.307C145.588 341.784 140.714 342.608 135.946 341.623C134.086 341.241 132.324 340.598 130.709 339.719C129.449 339.047 128.282 338.23 127.222 337.284C126.103 336.289 125.112 335.152 124.258 333.891C124.179 333.772 124.103 333.657 124.031 333.538C121.517 329.624 120.691 325.015 121.707 320.515C121.906 319.612 122.178 318.729 122.519 317.883C122.925 316.851 123.438 315.866 124.031 314.941C124.185 314.7 124.347 314.463 124.516 314.229C124.537 314.199 124.554 314.173 124.574 314.143C125.945 312.252 127.7 310.615 129.787 309.33C132.093 307.903 134.637 307.001 137.278 306.648C137.622 306.605 137.97 306.569 138.317 306.536C138.817 306.5 139.312 306.48 139.815 306.48C140.404 306.48 140.996 306.507 141.591 306.563C142.314 306.632 143.037 306.74 143.76 306.889C145.33 307.212 146.828 307.716 148.229 308.391C148.236 308.398 148.249 308.398 148.256 308.404C150.529 309.505 152.546 311.043 154.171 312.954C154.519 313.349 154.835 313.758 155.135 314.176C155.252 314.318 155.348 314.466 155.451 314.614C155.531 314.733 155.606 314.848 155.679 314.967C155.989 315.441 156.267 315.926 156.519 316.42C158.361 320.001 158.891 324.037 157.999 327.997Z" fill="#2B478B"/>
<path d="M139.966 326.642L120.494 316.874L122.498 313.217L139.738 321.868L156.091 311.764L158.429 315.233L139.966 326.642Z" fill="#2B478B"/>
<path d="M129.769 340.944L126.285 338.506L137.68 323.602L137.222 304.477L141.536 304.381L142.025 324.91L129.769 340.944Z" fill="#2B478B"/>
<path d="M141.54 322.95L138.176 325.534L151.147 341.002L154.512 338.418L141.54 322.95Z" fill="#2B478B"/>
<path d="M135.709 324.257C135.709 322.066 137.565 320.291 139.854 320.291C142.143 320.291 143.999 322.066 143.999 324.257C143.999 326.448 142.143 328.224 139.854 328.224C137.565 328.224 135.709 326.445 135.709 324.257Z" fill="#2B478B"/>
<path d="M755.694 320.363C755.526 320.073 755.347 319.797 755.161 319.52C754.358 318.327 753.422 317.247 752.382 316.295C749.911 314.015 746.819 312.437 743.38 311.725C742.058 311.452 740.729 311.32 739.407 311.32C738.894 311.32 738.381 311.34 737.875 311.379C734.849 311.616 731.912 312.568 729.286 314.189C728.277 314.812 727.347 315.514 726.497 316.291C723.808 318.742 721.943 321.908 721.147 325.46C720.097 330.135 721.01 334.922 723.719 338.941C724.521 340.131 725.457 341.211 726.497 342.167C728.969 344.446 732.061 346.028 735.5 346.736C736.825 347.01 738.157 347.145 739.476 347.145C743.036 347.145 746.526 346.163 749.59 344.275C750.599 343.652 751.529 342.951 752.379 342.173C755.068 339.722 756.934 336.553 757.729 332.998C758.71 328.649 757.987 324.202 755.694 320.363ZM754.286 332.296C753.921 333.93 753.271 335.466 752.386 336.853C751.783 337.788 751.074 338.658 750.262 339.442C749.491 340.19 748.623 340.862 747.68 341.448C747.621 341.485 747.563 341.521 747.504 341.551C744.134 343.577 740.147 344.249 736.247 343.445C734.725 343.132 733.283 342.605 731.964 341.887C730.935 341.336 729.978 340.668 729.11 339.897C728.194 339.083 727.382 338.154 726.687 337.123C726.625 337.027 726.559 336.932 726.501 336.836C724.445 333.637 723.771 329.865 724.6 326.185C724.765 325.447 724.986 324.725 725.265 324.03C725.599 323.187 726.015 322.383 726.501 321.625C726.628 321.427 726.759 321.236 726.896 321.045C726.914 321.019 726.927 320.999 726.945 320.973C728.064 319.424 729.503 318.087 731.207 317.036C733.093 315.87 735.173 315.132 737.335 314.842C737.613 314.805 737.899 314.776 738.185 314.749C738.591 314.72 738.997 314.703 739.411 314.703C739.892 314.703 740.378 314.723 740.863 314.769C741.455 314.825 742.048 314.917 742.64 315.036C743.924 315.3 745.149 315.715 746.296 316.265C746.303 316.272 746.313 316.272 746.316 316.275C748.176 317.174 749.825 318.433 751.153 319.994C751.439 320.317 751.697 320.65 751.942 320.996C752.038 321.111 752.117 321.233 752.2 321.355C752.262 321.451 752.327 321.546 752.386 321.642C752.641 322.03 752.868 322.426 753.071 322.831C754.579 325.753 755.013 329.054 754.286 332.296Z" fill="#2B478B"/>
<path d="M739.535 331.188L723.609 323.196L725.248 320.205L739.349 327.281L752.724 319.019L754.638 321.855L739.535 331.188Z" fill="#2B478B"/>
<path d="M731.193 342.883L728.346 340.887L737.665 328.7L737.29 313.054L740.818 312.979L741.218 329.768L731.193 342.883Z" fill="#2B478B"/>
<path d="M740.809 328.14L738.057 330.254L748.667 342.906L751.419 340.792L740.809 328.14Z" fill="#2B478B"/>
<path d="M736.051 329.236C736.051 327.444 737.569 325.994 739.438 325.994C741.311 325.994 742.826 327.447 742.826 329.236C742.826 331.028 741.308 332.478 739.438 332.478C737.569 332.478 736.051 331.028 736.051 329.236Z" fill="#2B478B"/>
<path d="M354.217 377.121H328.125V405.563H354.217V377.121Z" fill="#AEC3FF"/>
<path d="M505.83 67.9048H494.789V102.382H505.83V67.9048Z" fill="#0021AF"/>
<path d="M636.175 67.9048H625.135V102.382H636.175V67.9048Z" fill="#0021AF"/>
<path d="M484.308 67.9048H473.268V102.382H484.308V67.9048Z" fill="#0021AF"/>
<path d="M310.854 261.867V251.301H274.826V261.867H310.854Z" fill="#0021AF"/>
<path d="M310.854 149.703V139.141H274.826V149.703H310.854Z" fill="#0021AF"/>
<path d="M752.075 371.376H731.082V404.269H752.075V371.376Z" fill="#2B478B"/>
<path d="M791.65 371.376H770.656V404.269H791.65V371.376Z" fill="#0021AF"/>
<path d="M277.494 197.766C277.494 197.766 280.224 193.318 282.393 191.671C284.562 190.024 290.284 189.566 290.504 189.984C291.192 191.289 288.235 193.17 287.619 194.369C287.003 195.565 287.268 197.291 284.355 198.702C281.346 200.158 279.604 201.113 279.604 201.113L277.494 197.766Z" fill="#FFB27D"/>
<path d="M279.804 197.163C278.399 195.071 277.979 194.962 277.979 194.962C277.979 194.962 257.02 207.61 254.807 208.348C252.59 209.089 230.812 204.965 230.812 204.965L223.248 217.385C223.248 217.385 252.039 221.78 257.612 219.8C266.828 216.529 280.923 200.491 280.923 200.491C280.923 200.491 280.905 198.804 279.804 197.163Z" fill="#233862"/>
<path d="M285.849 195.367C285.849 195.367 289.973 192.946 290.166 193.984C290.262 194.501 288.427 195.918 287.691 196.52C286.954 197.123 285.074 198.313 285.074 198.313L285.849 195.367Z" fill="#FFB27D"/>
<path d="M314.749 178.431C310.787 173.169 305.193 169.677 299.099 168.138C293.491 166.715 287.46 166.946 281.886 168.962C279.624 169.782 277.431 170.896 275.376 172.316C262.759 181.02 259.894 197.921 268.99 209.999C272.952 215.257 278.547 218.749 284.637 220.288C287.477 221.009 290.417 221.306 293.357 221.161C296.228 221.019 299.092 220.459 301.85 219.461C303.392 218.907 304.897 218.212 306.349 217.379C306.666 217.198 306.983 217.01 307.293 216.812C307.654 216.588 308.012 216.351 308.363 216.11C309.076 215.616 309.761 215.099 310.412 214.555C312.123 213.132 313.613 211.544 314.877 209.831C321.652 200.672 321.976 188.024 314.749 178.431ZM314.457 197.717C313.861 201.235 312.415 204.49 310.25 207.271C309.851 207.788 309.424 208.289 308.973 208.773C308.439 209.343 307.878 209.887 307.279 210.404C307.217 210.46 307.158 210.513 307.093 210.566C306.508 211.063 305.892 211.534 305.248 211.982C305.162 212.042 305.079 212.098 304.993 212.157C304.903 212.216 304.817 212.272 304.728 212.331C304.545 212.45 304.356 212.569 304.17 212.684C304.167 212.687 304.163 212.691 304.156 212.691C303.427 213.139 302.676 213.537 301.915 213.896C301.795 213.952 301.678 214.005 301.557 214.058C301.241 214.203 300.92 214.335 300.6 214.463C295.354 216.539 289.553 216.621 284.344 214.891C283.418 214.585 282.513 214.223 281.631 213.801C280.055 213.05 278.56 212.121 277.18 211.014C275.748 209.874 274.44 208.539 273.3 207.024C268.869 201.14 267.936 193.849 270.119 187.428C270.663 185.82 271.403 184.268 272.336 182.806C273.872 180.381 275.934 178.21 278.485 176.451C279.655 175.64 280.891 174.948 282.175 174.368C283.89 173.597 285.69 173.041 287.535 172.701C288.561 172.514 289.601 172.392 290.651 172.339C291.377 172.303 292.107 172.299 292.837 172.332C293.732 172.369 294.638 172.458 295.536 172.599C296.861 172.803 298.146 173.113 299.388 173.525C302.979 174.714 306.184 176.731 308.752 179.432C309.348 180.058 309.909 180.717 310.432 181.412C310.956 182.107 311.434 182.825 311.865 183.563C314.374 187.85 315.293 192.788 314.457 197.717Z" fill="#2B478B"/>
<path d="M292.164 197.146L267.549 186.294L269.776 181.668L291.572 191.278L311.036 177.853L314.145 181.981L292.164 197.146Z" fill="#2B478B"/>
<path d="M280.555 215.366L276.107 212.576L289.148 193.54L287.327 170.02L292.629 169.641L294.588 194.887L280.555 215.366Z" fill="#2B478B"/>
<path d="M293.837 192.51L289.865 195.895L306.855 214.153L310.827 210.768L293.837 192.51Z" fill="#2B478B"/>
<path d="M286.765 194.462C286.62 191.767 288.785 189.468 291.605 189.329C294.421 189.191 296.824 191.263 296.969 193.961C297.113 196.656 294.948 198.956 292.128 199.094C289.312 199.233 286.909 197.16 286.765 194.462Z" fill="#2B478B"/>
<path d="M287.643 223.318L256.47 258.422C255.334 259.7 253.33 259.855 251.995 258.768C251.106 258.046 250.996 256.771 251.754 255.921L283.791 219.846C284.442 219.114 285.591 219.022 286.356 219.645L287.406 220.498C288.283 221.216 288.39 222.478 287.643 223.318Z" fill="#E35454"/>
<path d="M294.161 210.213L290.718 206.061C289.238 204.276 286.463 204.161 284.989 205.821L271.157 221.398C270.427 222.218 270.534 223.45 271.391 224.149L276.424 228.24L283.905 219.816L280.872 217.349L285.358 212.298C286.959 210.493 289.995 210.69 291.506 212.7L293.265 215.036L294.178 214.008C295.114 212.947 295.111 211.359 294.161 210.213Z" fill="#E35454"/>
<path d="M275.921 224.428C275.614 224.178 275.577 223.74 275.838 223.447C276.1 223.154 276.558 223.118 276.864 223.368C277.17 223.618 277.208 224.056 276.947 224.349C276.685 224.642 276.227 224.675 275.921 224.428Z" fill="#2A4E96"/>
<path d="M278.94 221.029C278.634 220.778 278.596 220.34 278.858 220.047C279.119 219.754 279.577 219.718 279.884 219.968C280.19 220.219 280.228 220.656 279.966 220.95C279.705 221.243 279.243 221.279 278.94 221.029Z" fill="#2A4E96"/>
<path d="M222.115 393.802C222.115 393.802 222.621 401.604 224.136 403.439H247.429C247.281 402.662 246.623 400.741 243.711 400.253C240.031 399.64 233.868 397.166 231.641 392.511C229.293 387.612 222.115 393.802 222.115 393.802Z" fill="#163560"/>
<path d="M180.779 392.715C180.779 392.715 179.068 403.541 181.061 403.716C181.326 403.739 190.005 403.63 193.369 403.61C197.558 403.587 204.581 403.436 204.581 403.436C205.445 403.472 205.852 402.184 205.411 401.469C204.929 400.685 204.006 399.851 202.247 399.525C198.581 398.85 192.467 396.27 190.322 391.579C188.07 386.65 180.779 392.715 180.779 392.715Z" fill="#163560"/>
<path d="M233.066 289.989C233.066 289.989 227.21 309.601 210.424 343.657C193.638 377.716 192.343 393.233 192.343 393.233L180.779 392.713C180.779 392.713 181.867 352.177 189.796 334.989C197.724 317.801 199.339 270.771 199.339 270.771L233.066 289.989Z" fill="#B03232"/>
<path d="M242.469 273.112C242.469 273.112 242.934 303.481 237.447 340.769C231.956 378.057 233.818 393.884 233.818 393.884L220.667 394.302C220.667 394.302 212.808 357.001 215.062 338.338C217.317 319.674 204.301 274.295 204.301 274.295L242.469 273.112Z" fill="#E35454"/>
<path d="M216.523 202.05L222.727 206.445L231.692 204.64C231.568 203.856 230.976 200.614 230.435 197.678C230.404 197.504 230.37 197.332 230.339 197.161C229.877 194.664 229.478 192.516 229.478 192.516L221.106 188.523L217.983 187.034C217.99 187.086 218.224 189.808 218.259 190.203C218.847 197.257 216.523 202.05 216.523 202.05Z" fill="#FFB27D"/>
<path d="M231.059 199.829C230.863 199.75 218.865 196.363 217.56 196.775C216.256 197.187 215.484 199.598 215.484 199.598L234.006 204.649C234.009 204.649 233.569 200.84 231.059 199.829Z" fill="#163560"/>
<path d="M198.756 276.862C200.787 285.738 243.183 257.886 242.618 252.466C242.557 251.873 242.495 251.27 242.433 250.677C241.651 243.133 240.901 235.753 240.849 230.936C240.808 226.759 240.205 222.486 239.403 218.605C238.67 215.02 237.761 211.769 236.976 209.238C236.422 207.453 235.386 205.885 234.012 204.649C233.038 203.773 231.895 203.068 230.631 202.587C230.29 202.448 229.936 202.333 229.581 202.234C224.476 200.818 217.412 199.062 215.494 199.599C210.306 201.061 206.45 209.798 203.724 220.941C198.611 241.798 197.43 271.08 198.756 276.862Z" fill="#2A4E96"/>
<path d="M218.885 190.331C220.724 193.698 227.575 196.61 230.432 197.678C230.401 197.503 230.367 197.332 230.336 197.16C229.874 194.663 229.475 192.515 229.475 192.515L221.102 188.522C219.254 188.496 218.128 188.944 218.885 190.331Z" fill="#FCA56B"/>
<path d="M233.545 192.047C233.545 192.047 218.442 196.557 215.65 187.51C212.862 178.467 209.033 172.958 218.559 169.697C228.085 166.435 231.032 169.354 232.729 172.158C234.43 174.958 237.404 190.64 233.545 192.047Z" fill="#FFB27D"/>
<path d="M232.136 171.285C232.136 171.285 231.172 181.811 228.9 181.353C226.624 180.895 224.562 180.559 224.896 183.729C225.23 186.901 228.383 190.565 221.374 191.125C214.365 191.685 204.288 174.388 206.213 171.11C211.769 161.665 240.167 159.757 232.136 171.285Z" fill="#163560"/>
<path d="M241.338 273.113C237.138 274.566 241.41 269.12 241.338 267.983C241.011 262.992 243.059 256.683 242.429 250.677L216.785 236.01C216.788 236.01 210.702 272.882 241.338 273.113Z" fill="#233862"/>
<path d="M198.756 276.863C209.704 296.277 211.446 303.693 211.446 303.693C220.975 302.656 237.3 284.73 242.478 279.943C242.478 279.943 243.18 257.886 242.616 252.466L234.701 252.249C234.701 252.249 220.397 255.718 216.689 251.01C212.981 246.302 214.586 223.191 214.586 223.191L203.714 220.941C198.612 241.799 195.816 271.651 198.756 276.863Z" fill="#E35454"/>
<path d="M261.215 239.72C261.215 239.72 264.341 239.137 265.157 238.497C266.362 237.552 267.305 235.967 267.894 235.793C268.882 235.499 271.309 232.58 271.512 232.373C271.591 232.294 272.245 232.597 272.087 233.078C271.925 233.562 271.563 234.607 271.433 234.982C270.858 236.639 270.885 237.153 272.961 236.508C273.23 236.425 278.018 234.969 278.511 236.01C279.003 237.051 277.02 242.056 274.517 243.136C272.018 244.217 265.849 243.242 265.405 243.363C261.631 244.414 261.215 239.72 261.215 239.72Z" fill="#FFB27D"/>
<path d="M263.761 238.744C263.761 238.744 238.326 242.882 236.075 241.831C232.477 240.154 237.469 215.461 237.469 215.461C237.469 215.461 237.683 209.864 230.852 208.546C224.917 207.399 219.189 211.653 219.189 211.653C219.189 211.653 213.98 216.113 214.644 221.058C216.121 232.026 218.414 254.327 226.078 257.746C235.961 262.155 264.57 245.517 264.57 245.517C264.57 245.517 265.523 244.4 265.386 242.328C265.269 240.503 263.761 238.744 263.761 238.744Z" fill="#2A4E96"/>
<path d="M212.479 222.756L214.585 223.191C214.585 223.191 219.04 204.738 234.009 204.649C233.035 203.773 231.892 203.068 230.628 202.587C225.144 203.994 215.618 208.481 212.479 222.756Z" fill="#E35454"/>
<path d="M156.826 386.94H127.223V403.439H156.826V386.94Z" fill="#2B478B"/>
<path d="M309.404 386.94H274.23V403.439H309.404V386.94Z" fill="#0021AF"/>
<path d="M610.693 159.289H559.463V258.495H610.693V159.289Z" fill="#D2E0FF"/>
<path d="M602.698 167.349H567.607V184.773H602.698V167.349Z" fill="#AEC3FF"/>
<path d="M592.284 385.882C592.284 385.882 588.325 389.394 589.096 391.888C589.867 394.382 593.44 396.046 593.926 399.097C594.408 402.147 596.339 403.811 598.078 403.811C599.816 403.811 606.364 403.811 606.364 403.811C606.364 403.811 607.645 401.666 604.553 401.017C601.462 400.372 600.298 396.787 600.491 393.46C600.684 390.132 600.202 385.698 600.202 385.698L593.633 384.218L592.284 385.882Z" fill="#001677"/>
<path d="M640.86 394.86C640.86 394.86 639.937 402.853 641.676 403.683H664.094C664.094 403.683 664.136 401.143 660.562 400.589C656.989 400.036 650.713 398.003 649.649 393.473C648.585 388.946 640.86 394.86 640.86 394.86Z" fill="#001677"/>
<path d="M659.64 281.287C659.64 281.287 658.466 295.295 657.089 312.137C655.216 335.014 652.961 363.113 652.738 368.434C652.352 377.679 650.806 392.465 650.806 392.465C650.806 392.465 647.14 395.977 639.797 394.497C639.797 394.497 633.256 373.389 631.386 351.059C631.359 350.693 631.328 350.324 631.3 349.955C629.562 327.219 626.859 279.346 626.859 279.346L659.64 281.287Z" fill="#35488B"/>
<path d="M659.64 281.287C659.64 281.287 658.466 295.295 657.089 312.137L631.386 351.058C631.359 350.693 631.328 350.324 631.3 349.955C629.562 327.219 626.859 279.346 626.859 279.346L659.64 281.287Z" fill="#001677"/>
<path d="M654.281 282.947C654.281 282.947 653.193 285.557 651.354 289.866C647.058 299.911 638.651 319.207 630.33 336.309C626.474 344.236 622.632 351.688 619.228 357.529C605.323 381.379 600.975 388.03 600.975 388.03C600.975 388.03 600.775 387.954 600.441 387.816C598.999 387.236 595.002 385.543 593.174 383.991C592.726 383.612 592.41 383.243 592.289 382.897C592.289 382.897 597.608 336.869 606.92 325.648C612.181 319.306 618.364 300.28 618.653 293.628C618.78 290.693 619.166 286.496 619.551 282.717C619.896 279.304 620.254 276.23 620.426 274.747C620.498 274.144 620.539 273.802 620.539 273.802L644.958 280.421L654.281 282.947Z" fill="#35488B"/>
<path d="M649.312 289.474C638.375 288.927 633.517 287.764 627.255 286.298C623.489 285.415 621 283.564 619.547 282.714C619.891 279.3 620.249 276.227 620.421 274.744L630.243 279.551L649.312 289.474Z" fill="#001677"/>
<path d="M711.847 255.788C711.847 255.788 717.5 255.798 718.385 256.098C719.27 256.401 724.007 261.567 723.8 262.746C723.594 263.926 720.278 265.355 717.862 264.888C715.445 264.417 711.458 260.097 711.066 259.956C707.73 258.737 711.847 255.788 711.847 255.788Z" fill="#ED975D"/>
<path d="M713.848 260.861C715.183 258.565 714.543 255.194 714.543 255.194C714.543 255.194 697.371 241.884 695.543 240.28C693.715 238.672 675.349 210.056 675.349 210.056L649.873 211.644C649.873 211.644 681.311 246.207 686.028 250.19C693.818 256.772 713.686 263.553 713.686 263.553C713.686 263.553 712.798 262.666 713.848 260.861Z" fill="#E35454"/>
<path d="M663.598 203.079C663.598 203.079 672.228 217.608 680.663 219.506C680.663 219.506 680.405 215.938 679.048 212.815C678.614 211.817 678.811 210.67 679.523 209.83C679.864 209.428 680.181 209.046 680.48 208.683C682.604 206.081 683.613 204.486 683.613 204.486L680.749 197.123L678.807 192.125C677.874 193.746 676.845 195.13 675.774 196.309C670.238 202.391 663.598 203.079 663.598 203.079Z" fill="#FFB27D"/>
<path d="M675.767 196.308C675.767 196.308 674.738 203.589 680.473 208.682C682.597 206.08 683.606 204.485 683.606 204.485L680.742 197.122C677.674 196.226 675.767 196.308 675.767 196.308Z" fill="#ED975D"/>
<path d="M685.882 205.559C685.882 205.559 672.99 200.749 676.243 193.112C679.496 185.476 680.023 179.71 688.392 182.458C696.761 185.205 697.109 188.74 696.672 191.544C696.234 194.345 689.322 206.613 685.882 205.559Z" fill="#FFB27D"/>
<path d="M678.51 237.904C677.112 241.775 675.27 245.745 673.118 249.494C672.695 250.236 672.282 250.967 671.893 251.692C671.631 252.173 671.38 252.651 671.135 253.128C666.429 262.208 664.264 270.075 663.327 276.256C663.148 277.445 663.011 278.572 662.914 279.633C662.491 284.166 618.181 269.403 619.606 263.061C620.549 258.884 621.837 254.495 623.038 250.756C624.794 245.277 626.367 241.192 626.367 241.192C634.654 222.314 646.421 212.154 655.585 206.787C657.248 205.812 658.818 204.995 660.274 204.316C665.841 201.704 669.631 201.051 669.631 201.051C669.631 201.051 671.528 210.118 679.652 213.716C679.663 213.742 680.923 218.638 680.93 218.661C682.29 223.319 681.209 230.452 678.51 237.904Z" fill="#D50000"/>
<path d="M674.391 178.923C674.301 178.751 674.036 178.57 673.399 178.382C673.399 178.382 673.998 178.188 674.697 178.336C675.059 177.49 675.94 176.05 677.589 176.04C677.589 176.04 676.642 176.274 676.295 177.183C678.556 175.813 682.75 175.414 693.212 178.748C707.003 183.143 700.111 190.806 698.021 191.419C695.931 192.032 692.083 188.091 688.623 187.551C685.163 187.014 683.29 191.627 681.968 192.009C680.65 192.391 681.4 191.34 680.016 190.289C678.636 189.238 677.84 191.712 677.871 193.448C677.902 195.185 675.207 196.832 675.207 196.832C675.207 196.832 675.207 196.832 673.627 194.058C672.046 191.284 672.477 181.216 673.985 179.4C674.122 179.249 674.257 179.087 674.391 178.923Z" fill="#2B478B"/>
<path d="M651.191 231.008C651.191 231.008 652.675 241.758 657.691 249.892C662.707 258.026 664.931 245.365 664.931 245.365L651.191 231.008Z" fill="#951919"/>
<path d="M671.134 253.126C666.428 262.206 664.262 270.073 663.326 276.254C663.147 277.443 663.009 278.57 662.913 279.63C662.489 284.164 662.73 287.504 662.906 289.402C663.364 294.351 624.479 284.793 619.281 277.634C616.42 273.694 620.011 260.166 623.037 250.75C623.543 250.869 647.652 256.358 664.328 242.083L671.134 253.126Z" fill="#35488B"/>
<path d="M674.088 227.58L671.689 222.994C671.696 222.914 671.95 214.902 666.928 210.204C664.218 207.664 660.407 206.518 655.584 206.784C657.247 205.809 658.817 204.992 660.273 204.313C663.719 204.821 666.6 206.158 668.89 208.31C674.791 213.848 674.105 227.207 674.088 227.58Z" fill="#001677"/>
<path d="M727.967 246.487V272.089H749.473V246.487H727.967Z" fill="#233862"/>
<path d="M724.67 256.287V262.286H728.712V256.287H724.67Z" fill="#233862"/>
<path d="M722.209 258.487V260.087H724.671V258.487H722.209Z" fill="#233862"/>
<path d="M720.721 250.171V268.397H722.208V250.171H720.721Z" fill="#233862"/>
<path d="M707.248 259.141C707.248 259.141 714.808 257.843 716.064 257.985C717.321 258.127 721.634 260.087 721.679 260.433C721.721 260.775 721.497 261.046 720.736 261.059C719.972 261.072 717.483 260.65 717.627 260.95C717.772 261.246 724.919 262.933 724.929 264.327C724.939 265.72 720.86 268.122 717.51 268.145C714.161 268.168 707.778 264.156 707.217 264.083C702.466 263.467 707.248 259.141 707.248 259.141Z" fill="#FFB27D"/>
<path d="M708.667 262.09C708.815 260.66 707.249 259.141 707.249 259.141C707.249 259.141 684.803 253.231 682.947 251.439C681.088 249.643 672.485 221.08 672.485 221.08C672.485 221.08 669.524 209.519 662.587 208.244C656.559 207.137 652.394 209.99 649.67 213.334C646.424 217.32 646.104 222.819 648.8 227.165C654.852 236.923 667.056 256.292 670.622 259.599C678.554 266.963 707.218 265.447 707.218 265.447C707.218 265.447 708.367 264.96 708.667 262.09Z" fill="#D50000"/>
<path d="M429.215 193.105H424.281V199.523H429.215V193.105Z" fill="#2B478B"/>
<path d="M371.868 330.679C374.533 329.819 381.917 324.251 382.351 324.066C386.028 322.492 377.872 321.734 377.872 321.734C377.872 321.734 371.951 321.18 369.324 322.992C369.324 322.992 367.713 326.626 368.05 327.75C368.384 328.873 370.557 331.1 371.868 330.679Z" fill="#FFB27D"/>
<path d="M377.434 324.672C376.253 322.079 376.983 320.07 376.983 320.07C376.983 320.07 399.962 314.041 402.228 312.683C409.44 308.361 419.506 280.344 419.506 280.344C419.506 280.344 424.212 269.172 431.352 268.849C437.556 268.569 441.302 272.002 443.526 275.728C446.18 280.169 445.67 285.72 442.317 289.704C434.788 298.645 416.27 320.929 412.218 323.776C405.987 328.158 379.992 327.42 379.992 327.42C379.992 327.42 378.363 326.708 377.434 324.672Z" fill="#E35454"/>
<path d="M392.265 351.377C395.949 356.313 404.903 358.718 421.803 359.469C423.16 359.531 424.526 359.581 425.897 359.62C427.308 359.663 428.723 359.689 430.138 359.709C434.73 359.772 439.302 359.719 443.657 359.581C447.881 359.442 451.902 359.222 455.545 358.932C462.671 358.365 468.361 357.538 471.302 356.593C472.183 356.309 472.816 356.016 473.167 355.713C473.47 355.456 473.715 355.153 473.897 354.81C474.964 352.919 474.407 349.819 473.119 346.399C471.243 341.425 467.797 335.784 465.477 332.256C465.012 331.551 464.595 330.935 464.244 330.417C463.538 329.38 463.098 328.773 463.098 328.773C463.098 328.773 455.204 329.475 444.394 330.816C442.191 331.086 439.86 331.389 437.457 331.715C414.219 334.858 391.064 340.512 391.088 348.014C391.084 349.153 391.298 350.086 392.265 351.377Z" fill="#0021AF"/>
<path d="M420.758 359.378C422.169 359.421 428.717 359.691 430.132 359.707C434.725 359.77 439.296 359.717 443.651 359.579L447.748 343.788C441.414 352.242 422.796 358.834 420.758 359.378Z" fill="#001677"/>
<path d="M434.447 404.015H411.918C412.273 403.195 413.13 402.124 415.223 401.775C418.772 401.178 424.931 399.343 424.143 394.441C423.344 389.473 431.985 388.833 431.985 388.833C431.985 388.833 435.579 402.124 434.447 404.015Z" fill="#1D2C51"/>
<path d="M391.621 350.364C391.621 350.364 419.568 392.438 421.892 397.436C421.892 397.436 431.401 398.283 433.687 391.783C433.687 391.783 417.076 347.382 409.774 343.722C402.472 340.065 391.621 350.364 391.621 350.364Z" fill="#0021AF"/>
<path d="M435.311 266.487C435.311 266.487 427.865 280.377 419.503 282.324C419.503 282.324 419.675 279.596 420.611 276.825C421.21 275.05 420.876 273.106 419.658 271.65C419.637 271.623 419.616 271.6 419.596 271.574C417.465 269.004 416.449 267.429 416.449 267.429L419.231 260.092L419.434 256.343C420.374 257.948 421.407 259.401 422.481 260.567C428.023 266.566 435.311 266.487 435.311 266.487Z" fill="#FFB27D"/>
<path d="M422.842 260.446C422.842 260.446 425.252 266.475 419.596 271.579C417.465 269.009 416.449 267.434 416.449 267.434L419.231 260.097C422.274 259.181 422.842 260.446 422.842 260.446Z" fill="#ED975D"/>
<path d="M415.886 271.371C415.886 271.371 426.782 263.349 421.457 256.935C416.134 250.52 413.952 245.163 406.77 250.013C399.589 254.862 400.284 258.325 401.517 260.882C402.749 263.438 412.915 273.295 415.886 271.371Z" fill="#FFB27D"/>
<path d="M419.095 242.912C419.133 242.724 419.329 242.481 419.883 242.131C419.883 242.131 419.253 242.108 418.634 242.434C418.041 241.726 416.785 240.586 415.208 241.015C415.208 241.015 416.179 240.988 416.775 241.759C414.22 241.054 410.106 241.789 401.097 247.758C389.223 255.626 398.023 261.095 400.195 261.125C402.367 261.154 404.891 256.37 408.034 254.934C411.177 253.498 414.306 257.398 415.676 257.412C417.047 257.425 416.024 256.624 417.036 255.254C418.048 253.883 419.525 256.031 420 257.695C420.479 259.359 423.526 260.212 423.526 260.212C423.526 260.212 423.526 260.212 424.224 257.145C424.923 254.077 421.584 244.592 419.618 243.265C419.446 243.153 419.274 243.031 419.095 242.912Z" fill="#2B478B"/>
<path d="M507.882 391.494C507.882 391.494 510.692 395.572 511.342 396.893C511.996 398.214 510.712 401.028 508.788 401.45C507.091 401.822 506.836 404.705 506.836 404.705H515.067C515.938 404.705 516.723 404.247 517.06 403.538C518.221 401.094 518.486 397.915 518.72 396.851C519.212 394.614 520.183 392.739 519.753 390.459C519.326 388.189 515.27 386.875 507.879 386.898C499.765 386.921 507.882 391.494 507.882 391.494Z" fill="#1D2C51"/>
<path d="M483.734 340.695C478.632 347.841 431.482 341.795 434.715 337.947C435.537 336.968 435.045 336.02 435.21 334.619C436.026 327.978 430.508 317.656 428.215 313.679C427.681 312.757 427.323 312.18 427.254 312.062C425.082 308.355 423.226 304.431 421.801 300.587C419.061 293.21 417.918 286.133 419.233 281.495C419.243 281.468 419.243 281.449 419.254 281.429C427.299 277.792 429.977 265.216 429.977 265.216C429.977 265.216 457.897 268.432 473.627 303.45C473.627 303.45 474.511 305.7 475.706 309.1H475.709C476.074 310.141 476.47 311.294 476.877 312.523C478.987 318.858 480.963 327.091 482.602 333.2C482.66 333.41 482.719 333.624 482.781 333.845C483.531 336.468 484.581 339.505 483.734 340.695Z" fill="#D50000"/>
<path d="M508.754 394.254C507.566 394.264 503.989 394.745 499.115 395.499C481.451 398.217 459.937 403.815 446.601 403.815C443.678 403.815 441.499 401.831 440.607 399.242V399.238C435.13 383.273 447.788 336.075 447.788 336.075C447.788 336.075 452.329 336.652 461.497 337.298C470.992 337.973 481.062 339.403 482.697 342.457C482.896 342.826 482.969 343.396 482.934 344.15C482.872 345.458 482.476 347.31 481.802 349.56C481.688 349.939 481.564 350.327 481.437 350.733C478.91 358.6 473.474 370.503 467.305 381.122C483.95 382.041 506.599 385.556 506.599 385.556C510.31 389.562 508.754 394.254 508.754 394.254Z" fill="#0021AF"/>
<path d="M482.931 343.468C482.869 344.911 482.473 346.954 481.798 349.434C481.685 349.853 481.561 350.281 481.433 350.726C472.021 350.13 449.565 338.497 449.94 338.404C454.23 337.287 458.068 336.517 461.494 336.032C470.988 336.843 481.058 338.556 482.694 342.219C482.835 342.519 482.914 342.941 482.931 343.468Z" fill="#001677"/>
<path d="M443.368 288.741C443.368 288.741 449.375 328.338 435.212 334.615C436.028 327.973 430.51 317.651 428.217 313.674C430.358 302.934 435.698 291.617 443.368 288.741Z" fill="#951919"/>
<path d="M434.752 266.313C434.752 266.313 423.708 270.316 424.177 280.064C424.517 287.161 435.1 301.749 435.1 301.749L436.377 300.066C436.377 300.066 426.156 281.623 426.686 278.144C427.361 273.683 432.876 266.323 439.334 267.95L434.752 266.313Z" fill="#2B478B"/>
<path d="M483.736 340.695C478.634 347.841 425.772 343.203 429.005 339.355C429.827 338.376 431.153 335.421 431.318 334.021C431.401 333.362 435.312 333.263 435.277 332.541C434.964 325.989 430.282 317.261 428.216 313.677C427.683 312.754 427.325 312.178 427.256 312.059L429.211 309.486L436.375 300.07C436.375 300.07 439.343 302.423 444.614 304.801C451.523 307.925 462.381 311.094 475.704 309.097H475.708C476.072 310.138 476.468 311.292 476.875 312.52C478.985 318.856 480.961 327.089 482.6 333.197C482.658 333.408 482.717 333.622 482.779 333.843C483.533 336.468 484.583 339.506 483.736 340.695Z" fill="#0021AF"/>
<path d="M444.616 304.801C444.812 316.546 443.338 328.436 435.241 332.024C433.399 324.509 430.508 317.657 428.215 313.677C428.494 312.283 428.824 310.88 429.21 309.486L436.374 300.07C436.377 300.07 439.345 302.423 444.616 304.801Z" fill="#001677"/>
<path d="M345.863 314.575L391.201 341.574L393.995 337.277L348.656 310.279L345.863 314.575Z" fill="#2B478B"/>
<path d="M338.469 308.639L339.664 309.35L340.594 306.612C341.392 304.26 344.222 303.186 346.322 304.438L362.01 313.781L364.472 309.993L344.604 298.162C342.669 297.009 340.067 297.928 339.223 300.063L337.264 305.021C336.724 306.385 337.227 307.897 338.469 308.639Z" fill="#2B478B"/>
<path d="M350.094 311.203L359.9 317.042L363.389 311.678L353.583 305.838L350.094 311.203Z" fill="#2B478B"/>
<path d="M359.165 313.232C359.378 312.906 359.272 312.475 358.931 312.27C358.59 312.066 358.139 312.168 357.929 312.494C357.719 312.82 357.822 313.252 358.163 313.453C358.504 313.657 358.951 313.558 359.165 313.232Z" fill="#001677"/>
<path d="M355.209 310.878C355.423 310.552 355.316 310.121 354.975 309.92C354.634 309.719 354.183 309.818 353.973 310.144C353.76 310.47 353.867 310.901 354.208 311.102C354.548 311.303 354.996 311.204 355.209 310.878Z" fill="#001677"/>
<path d="M378.273 336.033C381.086 336.033 389.94 333.009 390.412 332.966C394.423 332.597 386.945 329.388 386.945 329.388C386.945 329.388 381.234 327.586 380.177 327.662C379.833 327.688 379.044 327.823 378.425 327.971L380.652 329.299C380.652 329.299 374.331 330.61 374.276 331.78C374.218 332.946 376.893 336.033 378.273 336.033Z" fill="#FFB27D"/>
<path d="M387.219 331.146C385.828 328.652 386.393 326.593 386.393 326.593C386.393 326.593 408.811 318.864 410.956 317.341C417.793 312.492 425.542 283.81 425.542 283.81C425.542 283.81 429.322 272.318 436.414 271.465C442.577 270.724 446.587 273.863 449.114 277.412C452.123 281.642 452.068 287.213 449.052 291.436C442.277 300.912 425.635 324.514 421.831 327.657C415.979 332.493 390.001 333.699 390.001 333.699C390.001 333.699 388.31 333.106 387.219 331.146Z" fill="#D50000"/>
<path d="M371.867 330.679C371.867 330.679 373.788 330.274 374.277 329.483C374.931 328.422 375.175 326.686 373.502 326.472C371.829 326.261 367.836 327.068 368.049 327.75C368.652 329.661 370.8 330.617 371.867 330.679Z" fill="#FFB27D"/>
<path d="M412.559 180.714C412.559 173.009 419.089 166.759 427.142 166.759C435.194 166.759 441.725 173.009 441.725 180.714C441.725 188.424 435.194 194.67 427.142 194.67C419.089 194.67 412.559 188.424 412.559 180.714Z" fill="#D50000"/>
<path d="M416.83 180.714C416.83 175.265 421.447 170.847 427.141 170.847C432.835 170.847 437.451 175.265 437.451 180.714C437.451 186.163 432.835 190.581 427.141 190.581C421.447 190.581 416.83 186.163 416.83 180.714Z" fill="#D2E0FF"/>
<path d="M424.281 180.714C424.281 179.202 425.562 177.973 427.146 177.973C428.729 177.973 430.01 179.198 430.01 180.714C430.01 182.226 428.729 183.455 427.146 183.455C425.562 183.455 424.281 182.229 424.281 180.714Z" fill="#2B478B"/>
<path d="M427.142 180.939C427.098 180.939 427.049 180.925 427.008 180.899C426.901 180.83 426.877 180.688 426.95 180.586L431.356 174.501C431.429 174.399 431.577 174.376 431.683 174.445C431.79 174.514 431.818 174.656 431.742 174.758L427.335 180.843C427.29 180.906 427.218 180.939 427.142 180.939Z" fill="#2B478B"/>
<path d="M465.823 194.946H462.305V199.522H465.823V194.946Z" fill="#2B478B"/>
<path d="M453.951 186.111C453.951 180.615 458.606 176.158 464.351 176.158C470.094 176.158 474.752 180.615 474.752 186.111C474.752 191.606 470.097 196.063 464.351 196.063C458.606 196.063 453.951 191.606 453.951 186.111Z" fill="#8C9DF4"/>
<path d="M456.998 186.111C456.998 182.223 460.289 179.074 464.352 179.074C468.414 179.074 471.705 182.223 471.705 186.111C471.705 189.998 468.414 193.148 464.352 193.148C460.289 193.148 456.998 189.998 456.998 186.111Z" fill="#D2E0FF"/>
<path d="M462.309 186.111C462.309 185.031 463.224 184.158 464.35 184.158C465.479 184.158 466.392 185.034 466.392 186.111C466.392 187.192 465.476 188.065 464.35 188.065C463.224 188.065 462.309 187.189 462.309 186.111Z" fill="#2B478B"/>
<path d="M464.352 186.269C464.318 186.269 464.287 186.259 464.256 186.239C464.18 186.19 464.16 186.088 464.215 186.019L467.358 181.68C467.409 181.607 467.516 181.591 467.588 181.64C467.664 181.69 467.681 181.792 467.63 181.864L464.487 186.203C464.456 186.246 464.404 186.269 464.352 186.269Z" fill="#2B478B"/>
<path d="M887.778 406.76H1.22214C0.550824 406.76 0 406.233 0 405.59V404.608C0 403.966 0.550824 403.439 1.22214 403.439H887.778C888.449 403.439 889 403.966 889 404.608V405.59C889 406.233 888.449 406.76 887.778 406.76Z" fill="#001364"/>
<path d="M367.885 299.581C367.637 299.162 367.375 298.754 367.107 298.349C365.936 296.609 364.573 295.034 363.058 293.647C359.454 290.323 354.951 288.027 349.938 286.986C348.014 286.587 346.072 286.396 344.148 286.396C343.4 286.396 342.653 286.426 341.913 286.485C337.5 286.831 333.221 288.218 329.392 290.583C327.922 291.489 326.566 292.514 325.327 293.647C321.409 297.222 318.689 301.834 317.526 307.013C315.994 313.83 317.326 320.808 321.275 326.665C322.445 328.398 323.808 329.973 325.323 331.367C328.928 334.691 333.431 336.997 338.443 338.028C340.374 338.427 342.316 338.625 344.241 338.625C349.429 338.625 354.52 337.195 358.985 334.441C360.455 333.535 361.812 332.51 363.051 331.377C366.969 327.802 369.689 323.183 370.852 318.004C372.281 311.659 371.227 305.175 367.885 299.581ZM365.829 316.973C365.299 319.351 364.352 321.592 363.058 323.611C362.18 324.975 361.147 326.24 359.963 327.384C358.841 328.474 357.577 329.456 356.197 330.309C356.111 330.362 356.028 330.411 355.942 330.457C351.029 333.413 345.218 334.391 339.534 333.222C337.317 332.764 335.214 331.999 333.289 330.952C331.788 330.148 330.394 329.176 329.131 328.049C327.798 326.863 326.614 325.506 325.595 324.003C325.502 323.862 325.409 323.723 325.327 323.582C322.332 318.917 321.347 313.421 322.555 308.058C322.793 306.984 323.116 305.929 323.526 304.918C324.012 303.686 324.621 302.516 325.327 301.409C325.513 301.123 325.705 300.843 325.905 300.563C325.929 300.526 325.95 300.497 325.974 300.46C327.606 298.207 329.699 296.253 332.188 294.721C334.935 293.018 337.971 291.944 341.118 291.522C341.528 291.47 341.941 291.427 342.357 291.391C342.95 291.348 343.542 291.325 344.144 291.325C344.846 291.325 345.552 291.354 346.261 291.42C347.125 291.503 347.986 291.634 348.847 291.812C350.716 292.194 352.503 292.801 354.176 293.604C354.183 293.611 354.2 293.611 354.207 293.618C356.916 294.929 359.319 296.764 361.261 299.041C361.678 299.512 362.053 299.999 362.407 300.5C362.545 300.668 362.662 300.846 362.786 301.024C362.879 301.162 362.972 301.304 363.055 301.446C363.423 302.012 363.757 302.589 364.056 303.178C366.263 307.438 366.893 312.248 365.829 316.973Z" fill="#D50000"/>
<path d="M344.331 315.359L321.121 303.71L323.507 299.351L344.063 309.667L363.555 297.622L366.344 301.756L344.331 315.359Z" fill="#D50000"/>
<path d="M332.173 332.404L328.021 329.498L341.603 311.734L341.059 288.929L346.202 288.817L346.784 313.289L332.173 332.404Z" fill="#D50000"/>
<path d="M346.203 310.937L342.191 314.018L357.656 332.458L361.667 329.378L346.203 310.937Z" fill="#D50000"/>
<path d="M339.256 312.513C339.256 309.9 341.466 307.785 344.196 307.785C346.926 307.785 349.136 309.9 349.136 312.513C349.136 315.122 346.926 317.241 344.196 317.241C341.466 317.241 339.256 315.122 339.256 312.513Z" fill="#2A4E96"/>
<path d="M841.503 55.5544H113.684C116.145 53.011 118.761 50.5631 121.529 48.2075H837.977C839.344 50.5928 840.511 53.0407 841.503 55.5544Z" fill="#D2E0FF"/>
<path d="M167.076 45.9663H158.188V58.9501H167.076V45.9663Z" fill="#AEC3FF"/>
<path d="M158.185 76.2637H125.9V88.2032H158.185V76.2637Z" fill="#D2E0FF"/>
<g opacity="0.5">
<path opacity="0.5" d="M174.328 91.7876H142.043V103.727H174.328V91.7876Z" fill="#D2E0FF"/>
</g>
<g opacity="0.5">
<path opacity="0.5" d="M194.916 76.2637H162.631V88.2032H194.916V76.2637Z" fill="#D2E0FF"/>
</g>
<g opacity="0.5">
<path opacity="0.5" d="M233.687 130.294H201.402V142.233H233.687V130.294Z" fill="#D2E0FF"/>
</g>
<g opacity="0.5">
<path opacity="0.5" d="M254.273 114.773H221.988V126.712H254.273V114.773Z" fill="#D2E0FF"/>
</g>
<g opacity="0.5">
<path opacity="0.5" d="M790.027 168.096H757.742V180.035H790.027V168.096Z" fill="#D2E0FF"/>
</g>
<g opacity="0.5">
<path opacity="0.5" d="M810.615 152.572H778.33V164.511H810.615V152.572Z" fill="#D2E0FF"/>
</g>
<g opacity="0.5">
<path opacity="0.5" d="M826.758 137.051H794.473V148.99H826.758V137.051Z" fill="#D2E0FF"/>
</g>
<g opacity="0.5">
<path opacity="0.5" d="M773.885 152.572H741.6V164.511H773.885V152.572Z" fill="#D2E0FF"/>
</g>
<g opacity="0.5">
<path opacity="0.5" d="M385.549 154.364H353.264V166.303H385.549V154.364Z" fill="#D2E0FF"/>
</g>
<g opacity="0.5">
<path opacity="0.5" d="M369.406 138.84H337.121V150.779H369.406V138.84Z" fill="#D2E0FF"/>
</g>
<g opacity="0.5">
<path opacity="0.5" d="M470.094 119.359H437.809V131.299H470.094V119.359Z" fill="#D2E0FF"/>
</g>
<g opacity="0.5">
<path opacity="0.5" d="M626.836 119.359H594.551V131.299H626.836V119.359Z" fill="#D2E0FF"/>
</g>
<g opacity="0.5">
<path opacity="0.5" d="M650.525 134.88H618.24V146.819H650.525V134.88Z" fill="#D2E0FF"/>
</g>
<path d="M677.278 403.815H715.312C717.058 403.815 718.469 402.461 718.469 400.794V400.752C718.469 399.081 717.054 397.73 715.312 397.73H677.278C675.536 397.73 674.121 399.081 674.121 400.752V400.794C674.121 402.461 675.536 403.815 677.278 403.815Z" fill="#951919"/>
<path d="M748.64 403.808H706.241C703.889 403.808 701.965 401.966 701.965 399.716V368.731C701.965 366.481 703.889 364.636 706.241 364.636H748.64C750.991 364.636 752.916 366.477 752.916 368.731V399.713C752.916 401.966 750.991 403.808 748.64 403.808Z" fill="#951919"/>
<path d="M713.107 364.808C713.107 364.808 723.663 358.374 733.767 358.301C740.346 358.255 747.844 364.534 748.295 364.6C749.438 364.771 744.484 364.831 744.484 364.831C744.484 364.831 737.058 360.634 733.722 360.535C729.697 360.416 719.463 365.173 719.463 365.173L713.107 364.808Z" fill="#D50000"/>
<path d="M753.593 403.808H711.194C708.842 403.808 706.918 401.966 706.918 399.716V368.731C706.918 366.481 708.842 364.636 711.194 364.636H753.593C755.945 364.636 757.869 366.477 757.869 368.731V399.713C757.869 401.966 755.945 403.808 753.593 403.808Z" fill="#D50000"/>
</svg>
